<svg xmlns="http://www.w3.org/2000/svg" width="406.0954" height="441.9978" viewBox="0 0 406.0954 441.9978"><defs><style>.cls-1{fill:none;}.cls-2{fill:#231f20;}.cls-3{fill:#4fb3ce;}.cls-4{fill:#6cb345;}.cls-5{fill:#73ccf3;}</style></defs><title>COG-Logo-Stacked</title><g id="Layer_2" data-name="Layer 2"><g id="Layer_1-2" data-name="Layer 1"><rect class="cls-1" width="406.0954" height="441.9978"/><path class="cls-2" d="M78.7351,314.6453c.0747-3.28-.1632-6.5609-1.6791-8.4039-1.5237-1.8315-4.9615-2.4764-6.4852-2.4764-6.0738,0-8.4756,3.6816-8.7267,4.478-.2291.6375-1.6722,2.0822-1.6722,12.0018v15.4377c0,14.1646,4.641,15.8453,10.3071,15.8453,2.2506,0,9.0566-.7957,9.1367-12.0808h7.5979c.3222,18.2556-12.556,18.2556-16.3239,18.2556-7.1954,0-18.2406-.4883-18.2406-22.8913v-16.33c0-16.32,7.1951-20.97,18.5542-20.97,11.4473,0,15.8522,5.9339,15.13,17.1334Z"/><path class="cls-2" d="M93.6146,336.8866c0-11.8341,1.3647-21.6,15.359-21.6,14.0126,0,15.3688,9.7656,15.3688,21.6,0,17.84-6.8047,20.4063-15.3688,20.4063S93.6146,354.7266,93.6146,336.8866Zm23.8411-2.7957c0-11.0462-3.4348-13.4368-8.4821-13.4368-5.0359,0-8.4792,2.3906-8.4792,13.4368,0,13.1244,1.6833,17.8426,8.4792,17.8426C115.7816,351.9336,117.4557,347.2153,117.4557,334.0909Z"/><path class="cls-2" d="M153.7946,316.086H160.35v44.4877c0,9.0419-6.0031,11.2031-14.889,11.2031-6.7136,0-12.7953-3.3627-12.2342-10.802h7.3613c.08,3.7731,2.5512,5.8372,6.1565,5.8372,4.5544,0,7.05-2.8049,7.05-6.9588v-8.408h-.25a10.0834,10.0834,0,0,1-8.8794,5.0447c-10.9639,0-13.1244-9.432-13.1244-21.4505,0-18.5624,9.3645-19.7525,12.6393-19.7525,4.25,0,7.5939,1.8347,9.4457,5.7543h.1685Zm-7.6883,4.6432c-7.44,0-7.6851,8.9587-7.6851,14.31,0,12.9717,2.9655,16.0112,7.85,16.0112,7.9165,0,7.6739-9.3631,7.6739-14.9637C153.9447,330.0858,154.3472,320.7292,146.1063,320.7292Z"/><path class="cls-2" d="M192.92,356.49V328.4907c0-4.3233-1.5162-7.8365-7.1181-7.8365-7.2053,0-8.25,6.3915-8.25,11.9121V356.49h-6.5524V324.4859c0-2.8033-.1625-5.5993-.409-8.4h6.9614v5.2027h.3238c2.5512-4.5681,5.5993-6.0017,10.8-6.0017,8.6388,0,10.8105,5.1984,10.8105,13.2037V356.49Z"/><path class="cls-2" d="M211.0793,298.7235h7.3613v7.0374h-7.3613Zm6.9614,57.7665h-6.5629V316.086h6.5629Z"/><path class="cls-2" d="M253.005,322.092l-17.84,29.0379h18.4044v5.36h-25.53v-6.1512l17.61-28.7242v-.1688h-16.74v-5.36H253.005Z"/><path class="cls-2" d="M282.0488,350.6495h-.17c-1.9881,4.64-5.1109,6.6435-10.153,6.6435-8.5641,0-11.0334-5.5291-11.0334-13.2824,0-12.2473,11.9944-12.7993,21.1864-12.5659.17-5.3521.2531-11.2-6.7929-11.2-4.4036,0-6.7182,2.954-6.32,7.1958h-7.1207c.3146-9.039,5.1227-12.1536,13.68-12.1536,10.4,0,13.1283,5.3672,13.1283,12.1536v19.4522a63.3489,63.3489,0,0,0,.799,9.5972h-7.2046Zm-14.8-6.1584c0,3.9186,1.918,7.4425,6.3125,7.4425,4.0064,0,8.9639-2.4811,8.3176-15.5281C275.6524,336.4966,267.2489,335.93,267.2489,344.491Z"/><path class="cls-2" d="M321.0142,356.49V328.4907c0-4.3233-1.5194-7.8365-7.1154-7.8365-7.21,0-8.2508,6.3915-8.2508,11.9121V356.49h-6.5562V324.4859c0-2.8033-.158-5.5993-.3933-8.4h6.95v5.2027h.33c2.5552-4.5681,5.6006-6.0017,10.8-6.0017,8.646,0,10.7987,5.1984,10.7987,13.2037V356.49Z"/><path class="cls-2" d="M340.5389,316.086v-7.7653l6.5629-2.957V316.086h8.802v4.9553h-8.802v24.7254c0,2.5643,0,5.8405,6.003,5.8405.4844,0,1.5228-.1619,2.9563-.3186v5.0434c-2.1612.158-4.3184.6346-6.4815.6346-6.2384,0-9.0407-2.5591-9.0407-7.2026V321.0413h-6.6441V316.086Z"/><path class="cls-2" d="M204.0023,40.91A110.7979,110.7979,0,1,0,314.8089,151.7125,110.7942,110.7942,0,0,0,204.0023,40.91Z"/><path class="cls-3" d="M212.6478,215.1656c0,5.2627-2.251,11.2617-8.6255,11.2617-6.38,0-8.2686-5.999-8.2686-11.2617V199.231a205.6754,205.6754,0,0,1-47.6831-30.4521v44.5136c0,32.292,25.5357,48.4346,55.9517,48.4346,29.476,0,55.34-15.5381,56.2846-46.64a157.217,157.217,0,0,1-47.6591-9.0528Z"/><path class="cls-3" d="M242.6751,176.1822H212.6478v.0225c7.1543,3.8027,14.0737,5.8984,20.4179,5.8925C240.0525,182.0972,242.719,179.7486,242.6751,176.1822Z"/><path class="cls-3" d="M174.3279,117.4937c-19.562.022-5.4536,19.1221,7.8321,33.7437a150.4886,150.4886,0,0,0,13.5937,13.2358V124.2589c-1.1162-.6651-2.24-1.28-3.3843-1.856Q182.9761,117.4693,174.3279,117.4937Z"/><path class="cls-3" d="M195.7537,88.233c0-5.2466,1.8887-11.2676,8.2686-11.2676,6.3745,0,8.6255,6.021,8.6255,11.2676v12.1a177.5246,177.5246,0,0,1,28.2563,16.5786h19.4478V90.1168c0-32.2862-26.2793-48.4273-56.33-48.4273-28.5982,0-52.8848,14.2744-55.6748,42.8247a159.8258,159.8258,0,0,1,47.4062,8.9746Z"/><path class="cls-4" d="M289.3167,163.5894l-52.6533.0791c3.5293,4.6953,5.9673,9.1475,6.0117,12.5137h17.6768v37.11c0,.6153-.0274,1.1983-.045,1.795.9307.0234,1.8482.0283,2.78.0283,18.3091-.0283,32.145-3.5908,37.9048-11.6348C306.77,195.2154,304.0086,182.2271,289.3167,163.5894Z"/><path class="cls-4" d="M148.3475,84.5142c-1.3662-.04-2.7061-.0566-4.0484-.0566-43.5166.0791-52.7392,24.5644-14.501,66.6191a199.88,199.88,0,0,0,18.2725,17.7022V90.1168C148.0706,88.1866,148.1717,86.3375,148.3475,84.5142Z"/><path class="cls-4" d="M212.6478,100.3331a172.7641,172.7641,0,0,0-16.8941-6.8443v30.77a63.6806,63.6806,0,0,1,13.7178,10.8642l52.9111-.0781a181.327,181.327,0,0,0-21.4785-18.1333H212.6478Z"/><path class="cls-4" d="M212.6478,206.0347v-29.83a95.9351,95.9351,0,0,1-16.8941-11.7315V199.231Q204.1942,203.0895,212.6478,206.0347Z"/><path class="cls-5" d="M195.7537,164.4732A150.4886,150.4886,0,0,1,182.16,151.2374c-13.2857-14.6216-27.3941-33.7217-7.8321-33.7437q8.6492-.0191,18.0415,4.9092c1.1446.5762,2.2681,1.1909,3.3843,1.856v-30.77a159.8258,159.8258,0,0,0-47.4062-8.9746c-.1758,1.8233-.2769,3.6724-.2769,5.6026v78.6621a205.6754,205.6754,0,0,0,47.6831,30.4521Z"/><path class="cls-5" d="M212.6478,116.9117h28.2563a177.5246,177.5246,0,0,0-28.2563-16.5786Z"/><path class="cls-5" d="M260.3519,176.1822H242.6751c.0439,3.5664-2.6226,5.915-9.6094,5.915-6.3442.0059-13.2636-2.09-20.4179-5.8925v29.83a157.217,157.217,0,0,0,47.6591,9.0528c.0176-.5967.045-1.18.045-1.795Z"/><path class="cls-2" d="M324.3787,224.5465a9.9185,9.9185,0,1,1,2.9-7.0284A9.5356,9.5356,0,0,1,324.3787,224.5465Zm-13.0342-13.0459a8.2369,8.2369,0,0,0-2.4824,6.0293,8.3384,8.3384,0,0,0,2.4693,6.0722,8.5011,8.5011,0,0,0,12.062,0,8.6141,8.6141,0,0,0,0-12.1015,8.4853,8.4853,0,0,0-12.0489,0Zm5.8291.5517a8.2958,8.2958,0,0,1,2.9683.3926,2.6973,2.6973,0,0,1,1.686,2.7558,2.3749,2.3749,0,0,1-1.061,2.1465,4.1164,4.1164,0,0,1-1.5718.5284,2.632,2.632,0,0,1,1.8672,1.0644,2.9849,2.9849,0,0,1,.5908,1.6846v.7949q0,.378.0269.81a1.7539,1.7539,0,0,0,.0942.5634l.0679.1348h-1.7949l-.0269-.1084c-.0088-.0351-.018-.0742-.0268-.1191l-.0406-.3516v-.86A2.661,2.661,0,0,0,318.9271,219a4.6365,4.6365,0,0,0-2.1314-.3477h-1.5112v4.2754h-1.916v-10.875Zm2.0689,1.7149a4.9941,4.9941,0,0,0-2.3208-.4043h-1.6372v3.9394h1.7324a5.1958,5.1958,0,0,0,1.8262-.2432,1.9568,1.9568,0,0,0,.3994-3.2919Z"/></g></g></svg>