<svg xmlns="http://www.w3.org/2000/svg" width="79.8538" height="75.6" viewBox="0 0 79.8538 75.6"><defs><style>.cls-1{fill:#4fb2cc;}.cls-2{fill:#6bb245;}.cls-3{fill:#73caf2;}.cls-4{fill:#fff;}</style></defs><title>COG-Logo-Symbol-White</title><g id="Layer_2" data-name="Layer 2"><g id="Layer_1-2" data-name="Layer 1"><path d="M37.797,0A37.8,37.8,0,1,0,75.6,37.802,37.7984,37.7984,0,0,0,37.797,0"/><path class="cls-1" d="M40.7462,59.45c0,1.795-.768,3.842-2.942,3.842-2.177,0-2.822-2.047-2.822-3.842v-5.436a70.2035,70.2035,0,0,1-16.267-10.389v15.186c0,11.017,8.712,16.524,19.089,16.524,10.056,0,18.88-5.301,19.202-15.912a53.6169,53.6169,0,0,1-16.26-3.088Z"/><path class="cls-1" d="M50.99,46.15H40.7463v.008a15.1179,15.1179,0,0,0,6.966,2.01c2.383,0,3.293-.801,3.278-2.018"/><path class="cls-1" d="M27.673,26.1274c-6.674.008-1.86,6.524,2.672,11.512a51.3758,51.3758,0,0,0,4.638,4.516v-13.72c-.381-.227-.765-.437-1.155-.633a13.1739,13.1739,0,0,0-6.155-1.675"/><path class="cls-1" d="M34.9825,16.1449c0-1.79.645-3.844,2.821-3.844s2.943,2.054,2.943,3.844v4.128a60.5958,60.5958,0,0,1,9.64,5.656h6.635v-9.141c0-11.015-8.966-16.522-19.218-16.522-9.757,0-18.042,4.87-18.994,14.61a54.5183,54.5183,0,0,1,16.173,3.062Z"/><path class="cls-2" d="M66.9029,41.8536l-17.963.027c1.204,1.602,2.035,3.121,2.05,4.269h6.031v12.661c0,.21-.009.409-.015.612.317.008.63.01.948.01,6.247-.01,10.967-1.225,12.932-3.97,1.972-2.819,1.029-7.251-3.983-13.609"/><path class="cls-2" d="M18.81,14.8761c-.466-.014-.923-.019-1.381-.019-14.847.027-17.993,8.38-4.948,22.728a68.27,68.27,0,0,0,6.234,6.039V16.7871c0-.658.035-1.289.095-1.911"/><path class="cls-2" d="M40.7462,20.2729a58.8436,58.8436,0,0,0-5.764-2.335v10.498a21.718,21.718,0,0,1,4.681,3.706l18.051-.027a61.9592,61.9592,0,0,0-7.328-6.186h-9.64Z"/><path class="cls-2" d="M40.7462,56.3343V46.1573a32.7734,32.7734,0,0,1-5.764-4.002v11.858q2.88,1.3155,5.764,2.321"/><path class="cls-3" d="M34.9825,42.1551a51.36,51.36,0,0,1-4.638-4.516c-4.532-4.988-9.345-11.504-2.672-11.512a13.1777,13.1777,0,0,1,6.156,1.675c.39.197.773.406,1.154.633V17.9381a54.5183,54.5183,0,0,0-16.173-3.062c-.06.622-.095,1.253-.095,1.911v26.837a70.1962,70.1962,0,0,0,16.268,10.389Z"/><path class="cls-3" d="M40.7462,25.9289h9.64a60.5545,60.5545,0,0,0-9.64-5.656Z"/><path class="cls-3" d="M57.0211,46.15H50.99c.015,1.217-.894,2.018-3.278,2.018a15.1179,15.1179,0,0,1-6.966-2.01v10.177a53.6478,53.6478,0,0,0,16.26,3.088c.006-.204.015-.403.015-.612Z"/><path class="cls-4" d="M77.1128,58.9728a1.705,1.705,0,0,0-.792-.138h-.559v1.344h.591a1.7776,1.7776,0,0,0,.623-.083.6672.6672,0,0,0,.137-1.123m-.706-.585a2.8306,2.8306,0,0,1,1.012.133.9206.9206,0,0,1,.575.941.81.81,0,0,1-.361.732,1.4042,1.4042,0,0,1-.537.18.8991.8991,0,0,1,.637.363,1.0246,1.0246,0,0,1,.202.575v.271q0,.129.009.276a.6077.6077,0,0,0,.032.193l.023.046h-.612l-.009-.037-.009-.041-.014-.12v-.293a.9076.9076,0,0,0-.35-.849,1.5792,1.5792,0,0,0-.727-.119h-.516v1.459h-.653v-3.71Zm-1.989-.189a2.8088,2.8088,0,0,0-.847,2.057,2.8474,2.8474,0,0,0,.842,2.072,2.9019,2.9019,0,0,0,4.116,0,2.9395,2.9395,0,0,0,0-4.129,2.8959,2.8959,0,0,0-4.111,0m4.447,4.451a3.3847,3.3847,0,1,1,.989-2.398,3.2543,3.2543,0,0,1-.989,2.398"/></g></g></svg>